<svg xmlns="http://www.w3.org/2000/svg" width="26.38" height="21.43"><path d="M8.29 21.42a15.8 15.8 0 005.41-.91 13.932 13.932 0 004.32-2.44 16.571 16.571 0 003.09-3.53 15.633 15.633 0 002.57-8.5c0-.31-.01-.55-.02-.7a11.45 11.45 0 002.71-2.8 10.6 10.6 0 01-3.11.84A5.325 5.325 0 0025.64.4a10.72 10.72 0 01-3.44 1.3A5.236 5.236 0 0018.25 0a5.394 5.394 0 00-5.4 5.4 5.873 5.873 0 00.13 1.24 15.036 15.036 0 01-6.22-1.66 15.228 15.228 0 01-4.93-4 5.329 5.329 0 00-.74 2.73 5.214 5.214 0 00.66 2.58A5.418 5.418 0 003.5 8.22a5.492 5.492 0 01-2.44-.69v.07a5.24 5.24 0 001.23 3.44A5.325 5.325 0 005.4 12.9a5.353 5.353 0 01-1.43.19A6.409 6.409 0 012.95 13a5.423 5.423 0 005.06 3.75 10.62 10.62 0 01-6.72 2.31A12.775 12.775 0 01-.01 19a14.992 14.992 0 008.3 2.42z" fill="#1a1a1a" fill-rule="evenodd"/></svg>